<svg version="1.1" xmlns="http://www.w3.org/2000/svg" xmlns:xlink="http://www.w3.org/1999/xlink" width="261.50466" height="196.92652" viewBox="0,0,261.50466,196.92652">
  <g transform="translate(-109.23314,-81.52424)">
    <g data-paper-data="{&quot;isPaintingLayer&quot;:true}" fill-rule="evenodd" stroke-linejoin="miter" stroke-miterlimit="10" stroke-dasharray="" stroke-dashoffset="0" style="mix-blend-mode: normal">
      <g stroke="none" stroke-width="1" stroke-linecap="butt">
        <path d="M288.73441,206.75396c-0.34003,0.3878 -0.77043,0.67488 -1.29122,0.86083c-5.91773,1.503 -11.94346,2.07675 -18.07726,1.72166c0,-0.14335 0,-0.28708 0,-0.43041c4.94456,-27.70602 -3.23327,-50.73304 -24.53345,-69.08103c-10.84983,-8.92453 -23.33174,-12.94173 -37.44581,-12.05151c20.10022,-15.04284 41.33372,-16.76449 63.70089,-5.16494c19.75761,12.32363 29.29809,30.1856 28.62237,53.58624c-0.81091,11.25869 -4.4694,21.44523 -10.97549,30.55922z" fill="#c3f0fe" />
        <path d="M268.57431,116.40982c0,0.15067 0,0.30176 0,0.45243c-10.04081,7.41048 -16.97823,17.06233 -20.81211,28.956c-3.89073,-23.39235 3.12206,-42.84719 21.03835,-58.36443c-2.60288,9.59964 -2.67845,19.25166 -0.22624,28.956z" fill="#fffe80" />
        <path d="M270.20484,123.65442c-1.11465,-2.24009 -2.05485,-4.59064 -2.82066,-7.05169c0,-0.15654 0,-0.31356 0,-0.47012c2.08401,-1.21477 4.12098,-2.54707 6.11146,-3.99596c0.39113,-0.32343 0.70423,-0.24494 0.94023,0.23507c-1.78454,3.63161 -3.19487,7.39252 -4.23101,11.2827z" fill="#ffd381" />
        <path d="M267.76214,116.06278c0.69836,2.24432 1.5558,4.38788 2.57229,6.43068c0,0.42872 0,0.85742 0,1.28615c-1.00403,2.82737 -1.43278,5.75719 -1.28615,8.78862c1.94935,26.14331 14.23884,45.64976 36.86928,58.51929c-21.69587,-0.52131 -38.48727,-9.8098 -50.37374,-27.86632c-3.39098,-5.82148 -5.89179,-11.96667 -7.50246,-18.43467c0,-0.42872 0,-0.85742 0,-1.28615c3.63287,-11.27001 10.20648,-20.41572 19.72077,-27.4376z" fill="#ffe93f" />
        <path d="M270.04668,122.8636c11.84374,24.84711 31.26185,39.40223 58.25434,43.66574c0,0.14541 0,0.29124 0,0.43663c-1.9552,6.21452 -4.97578,11.81814 -9.06177,16.81132c11.08257,-3.13477 20.14436,-9.32047 27.18536,-18.55793c0.52213,-0.18862 0.95365,-0.47991 1.29454,-0.87333c3.15391,-0.60344 6.1029,-1.76801 8.84603,-3.49327c-7.81859,14.79176 -19.82891,24.47071 -36.0314,29.03773c-4.60857,1.08684 -9.21108,1.74184 -13.80841,1.96496c-0.28781,-0.14541 -0.57523,-0.29126 -0.86304,-0.43665c-22.77831,-13.10803 -35.1481,-32.97592 -37.1102,-59.60373c-0.14758,-3.0876 0.28394,-6.07174 1.29456,-8.95147z" fill="#fefe7f" />
        <path d="M272.43847,118.96951c1.59386,6.40045 4.06854,12.48145 7.42413,18.24216c11.76237,17.86794 28.37842,27.05947 49.84772,27.57531c0.28297,0.14127 0.56549,0.28295 0.84846,0.42422c11.83533,6.4034 24.20903,7.67612 37.12065,3.81813c0.21212,0.14127 0.42424,0.28297 0.63636,0.42424c-18.16324,19.74097 -39.79929,24.76097 -64.90809,15.06037c-21.24439,-10.72638 -32.27451,-28.0492 -33.0904,-51.9689c-0.07634,-4.70309 0.6307,-9.22797 2.12118,-13.57553z" fill="#ffd27f" />
        <path d="M311.85094,143.82994c-7.72295,10.01281 -17.66243,16.7177 -29.81837,20.11556c4.48175,-5.41228 7.79492,-11.48621 9.93948,-18.22232c6.74511,0.39048 13.3714,-0.24044 19.87889,-1.89322z" fill="#c3f0be" />
      </g>
      <path class="color" d="M290.25838,277.52359h-4.01779v-47.22448l4.01779,-0.74175v16.93652c1.31866,-0.4945 2.65792,-0.87567 4.01779,-1.14352c1.35987,-0.26785 2.71974,-0.40178 4.0796,-0.40178c0.87147,-0.00323 1.74233,0.0461 2.60785,0.14773c0.88639,0.10755 1.70375,0.27403 2.45209,0.49944c0.38083,0.114 0.75515,0.24875 1.12127,0.40364c1.64832,0.70054 2.96699,1.69983 3.95598,2.99789c0.98899,1.29806 1.67923,2.85366 2.07071,4.66682c0.22717,1.06738 0.38574,2.14821 0.47472,3.23586c0.07634,0.91798 0.11387,1.83877 0.1125,2.75992v17.86371h-4.01779v-16.56565c0.00144,-0.80113 -0.02019,-1.60214 -0.0649,-2.40202c-0.07252,-1.25232 -0.20542,-2.36782 -0.39869,-3.34651c-0.11557,-0.59928 -0.27548,-1.18915 -0.47843,-1.76474c-0.2831,-0.79078 -0.63873,-1.47999 -1.06688,-2.06762c-0.72114,-0.98899 -1.67923,-1.69984 -2.87426,-2.13252c-1.19504,-0.43268 -2.69913,-0.64902 -4.51229,-0.64902c-0.43493,0.00099 -0.86955,0.02285 -1.30238,0.06552c-0.31899,0.03098 -0.63704,0.07097 -0.95377,0.11992c-0.80356,0.12363 -1.5556,0.25755 -2.25614,0.40178c-0.70054,0.14423 -1.32896,0.29876 -1.88527,0.46359c-0.11253,0.0332 -0.22483,0.06719 -0.33688,0.10199c-0.30165,0.09437 -0.52293,0.17163 -0.66386,0.2318c-0.02735,0.01156 -0.05436,0.02393 -0.08098,0.03709zM278.88494,236.60395l-1.35986,3.64692c-0.78872,-0.47307 -1.74043,-0.94037 -2.85511,-1.4019c-0.35438,-0.14622 -0.71108,-0.28675 -1.06996,-0.42156c-0.71771,-0.26513 -1.45794,-0.46478 -2.21164,-0.59649c-0.74092,-0.13434 -1.53954,-0.22355 -2.39584,-0.26765c-0.43151,-0.0218 -0.86351,-0.03252 -1.29558,-0.03214c-1.14983,-0.00522 -2.29797,0.08825 -3.43181,0.27939c-1.23572,0.20625 -2.44007,0.56934 -3.58387,1.08048c-1.9986,0.90658 -3.67782,2.18403 -5.03769,3.83236c-1.08659,1.32937 -1.95249,2.82471 -2.56459,4.42884c-0.18408,0.47436 -0.34925,0.95584 -0.49511,1.44331c-0.43194,1.46188 -0.72336,2.96165 -0.87032,4.4789c-0.10131,1.01756 -0.15124,2.03958 -0.14958,3.06217c-0.0045,1.39676 0.08615,2.7922 0.27135,4.17665c0.15954,1.19034 0.40977,2.36676 0.74854,3.51897c0.34857,1.19387 0.81831,2.34896 1.4019,3.44726c0.45312,0.84786 0.98763,1.64963 1.59599,2.39399c1.31866,1.60711 2.93607,2.84336 4.85225,3.70873c1.24705,0.55509 2.56646,0.93073 3.91889,1.11571c0.88258,0.12395 1.77287,0.18489 2.66411,0.18234c0.95875,0.00232 1.9172,-0.03398 2.87303,-0.10879c0.92677,-0.075 1.78678,-0.18874 2.58004,-0.34121c0.46336,-0.08829 0.92282,-0.19594 1.37717,-0.32266c0.52127,-0.14544 1.03899,-0.30331 1.55273,-0.47348c0.96798,-0.32266 1.76618,-0.64944 2.3946,-0.98034c0.07561,-0.03966 0.15061,-0.08047 0.22499,-0.12239l1.17443,3.5851c-0.09101,0.06395 -0.18552,0.12276 -0.2831,0.17616c-0.20027,0.11126 -0.45184,0.23015 -0.75473,0.35666c-0.14763,0.06162 -0.29621,0.12097 -0.44567,0.17802c-0.48007,0.18379 -1.04751,0.37232 -1.70231,0.56559c-0.31745,0.09347 -0.636,0.1831 -0.95561,0.26888c-0.53393,0.14247 -1.07264,0.26637 -1.61516,0.37149c-0.56991,0.11167 -1.17545,0.21223 -1.81665,0.30165c-0.09226,0.01289 -0.18457,0.02545 -0.27692,0.0377c-1.40107,0.18544 -2.96698,0.27815 -4.69772,0.27815c-2.76094,0 -5.32614,-0.4945 -7.69561,-1.48349c-2.36946,-0.98899 -4.42987,-2.43128 -6.18122,-4.32685c-1.22617,-1.34055 -2.25554,-2.84861 -3.05723,-4.47891c-0.40972,-0.82412 -0.7717,-1.6711 -1.08418,-2.53677c-0.58705,-1.64357 -0.99753,-3.34495 -1.2245,-5.07539c-0.19775,-1.48325 -0.2946,-2.97822 -0.2899,-4.47458c0,-3.5851 0.54601,-6.76844 1.63802,-9.54998c0.57909,-1.49588 1.31134,-2.92785 2.18506,-4.27307c0.63902,-0.97859 1.36629,-1.89662 2.1727,-2.7426c1.81315,-1.89557 3.91477,-3.32755 6.30484,-4.29594c2.39007,-0.96839 4.88316,-1.45258 7.47927,-1.45258c1.60712,0 3.07,0.10302 4.38866,0.30906c0.54806,0.08477 1.09366,0.18473 1.63617,0.29979c0.66057,0.14135 1.26901,0.29896 1.82532,0.47286c0.75741,0.23654 1.43012,0.47307 2.01816,0.70961c0.17323,0.06969 0.34529,0.14223 0.51613,0.21758c0.20441,0.0899 0.40718,0.18346 0.60823,0.28063c0.36757,0.17843 0.67273,0.34491 0.91544,0.49944c0.028,0.01785 0.05581,0.03598 0.08344,0.05439zM159.58752,229.55737v17.92552c0.23488,-0.17684 0.48055,-0.3389 0.73556,-0.48523c0.54477,-0.31731 1.22801,-0.6447 2.0497,-0.98219c0.19369,-0.07949 0.3882,-0.15697 0.58351,-0.23242c1.54531,-0.59751 3.36876,-0.89628 5.47037,-0.89628c2.30766,0 4.35776,0.41208 6.15031,1.23624c1.79255,0.82416 3.30694,1.97799 4.54319,3.46148c0.98765,1.19598 1.78054,2.54021 2.34948,3.98317c0.17124,0.42772 0.32568,0.86196 0.46298,1.30176c0.43968,1.42424 0.72626,2.89129 0.85486,4.3763c0.06966,0.77481 0.1041,1.55238 0.10323,2.33032c0.00522,1.27364 -0.09651,2.54546 -0.30411,3.80206c-0.18004,1.08473 -0.46107,2.15027 -0.83941,3.1827c-0.46079,1.26669 -1.08103,2.46955 -1.84571,3.57955c-0.412,0.59285 -0.86955,1.15271 -1.36852,1.67449c-1.38047,1.44228 -3.0288,2.5446 -4.94497,3.30695c-1.36611,0.53592 -2.79894,0.883 -4.25886,1.03164c-0.71039,0.07549 -1.42431,0.11285 -2.1387,0.11188c-0.91934,0.00147 -1.83858,-0.02038 -2.75682,-0.06553c-0.89834,-0.04574 -1.73322,-0.11538 -2.50463,-0.20892c-0.59842,-0.07117 -1.1939,-0.1652 -1.78513,-0.28186c-0.62633,-0.12456 -1.25032,-0.26057 -1.87167,-0.40796c-1.03597,-0.24684 -1.93678,-0.50232 -2.70243,-0.76647v-46.23548zM356.64462,235.42952v10.13719h12.7333v3.39966h-12.7333v16.99834c-0.00119,0.58354 0.01716,1.16697 0.05501,1.74928c0.03708,0.55054 0.09292,1.05987 0.16751,1.528c0.05977,0.38482 0.14024,0.76613 0.24107,1.14229c0.1025,0.38235 0.23117,0.75719 0.38509,1.12189c0.25961,0.60741 0.57423,1.10912 0.94387,1.50512c0.57691,0.61812 1.27745,1.0302 2.10162,1.23624c0.52508,0.12938 1.05956,0.21702 1.59846,0.26208c0.3729,0.03188 0.74701,0.04755 1.12127,0.04698c0.53107,0.00159 1.06194,-0.02048 1.59105,-0.06614c0.48749,-0.04368 0.93851,-0.10899 1.35307,-0.19594c0.38639,-0.0786 0.76605,-0.1873 1.13549,-0.32513c0.30176,-0.11428 0.60159,-0.2336 0.89936,-0.35789c0.57032,-0.239 1.0473,-0.46524 1.43095,-0.6787c0.02687,-0.01488 0.05366,-0.02993 0.08036,-0.04513l0.989,3.33786c-0.17795,0.11236 -0.36203,0.21471 -0.55137,0.30659c-0.59257,0.29217 -1.41839,0.61235 -2.47744,0.96056c-1.44229,0.47389 -3.00818,0.71084 -4.69772,0.71084c-0.6983,0.00225 -1.39619,-0.03407 -2.09049,-0.10879c-0.7129,-0.07912 -1.37223,-0.20171 -1.97799,-0.36778c-0.30721,-0.08354 -0.61005,-0.18236 -0.9074,-0.29608c-0.77002,-0.28923 -1.4881,-0.70129 -2.12633,-1.22017c-0.40472,-0.33326 -0.76975,-0.71198 -1.0879,-1.12869c-0.48723,-0.64532 -0.88056,-1.35644 -1.16825,-2.11212c-0.22627,-0.58883 -0.40406,-1.19517 -0.53159,-1.81295c-0.32966,-1.56591 -0.4945,-3.42027 -0.4945,-5.56309v-29.42258zM216.39287,262.37961h-22.43781c0.03053,1.18275 0.15997,2.36088 0.38695,3.52206c0.25508,1.26468 0.63234,2.3983 1.13178,3.4009c0.37245,0.75575 0.83823,1.4618 1.38644,2.10162c0.98314,1.11571 2.24644,1.94859 3.65928,2.41253c0.92759,0.32389 1.96336,0.54147 3.10729,0.65273c0.62726,0.05949 1.25705,0.08859 1.88712,0.08716c0.63881,0.00134 1.27749,-0.01887 1.91494,-0.06058c1.26303,-0.0853 2.32599,-0.26188 3.18889,-0.52973c0.02952,-0.00911 0.05898,-0.01837 0.08839,-0.02782c0.29854,-0.096 0.59609,-0.19513 0.89257,-0.29732c0.82664,-0.28599 1.4563,-0.53715 1.88898,-0.75349l0.74175,3.46148c-0.57692,0.32967 -1.65863,0.72115 -3.24514,1.17444c-1.58651,0.45329 -3.45118,0.67993 -5.594,0.67993c-1.07375,0.00419 -2.14656,-0.06396 -3.21114,-0.20398c-1.46495,-0.19862 -2.78464,-0.54271 -3.95907,-1.03226c-1.18507,-0.48503 -2.29552,-1.13535 -3.2983,-1.93163c-0.57409,-0.46026 -1.10461,-0.97237 -1.58486,-1.52985c-1.1311,-1.32451 -1.99413,-2.85616 -2.5411,-4.50981c-0.08676,-0.25628 -0.16694,-0.51474 -0.24045,-0.77513c-0.57692,-2.0398 -0.86537,-4.27534 -0.86537,-6.70662c0,-2.60518 0.34718,-4.89861 1.04154,-6.88031c0.05227,-0.14899 0.10688,-0.29715 0.1638,-0.44443c0.39854,-1.04624 0.89309,-2.05335 1.47731,-3.0084c0.48534,-0.79074 1.04635,-1.53247 1.67511,-2.21473c1.0265,-1.12356 2.24832,-2.05154 3.60612,-2.73889c0.27641,-0.1384 0.55807,-0.26603 0.84436,-0.38262c1.66893,-0.67994 3.38936,-1.0199 5.16131,-1.0199c1.42248,-0.01378 2.83929,0.18136 4.20508,0.57918c1.98669,0.58834 3.7722,1.71415 5.15946,3.25317c1.02931,1.15736 1.8196,2.50686 2.32538,3.97081c0.43145,1.19257 0.74339,2.52729 0.93583,4.00419c0.15946,1.27073 0.23668,2.55043 0.23118,3.83111c0,0.32967 -0.01031,0.65933 -0.03091,0.989c-0.01221,0.19837 -0.02911,0.39643 -0.05068,0.59401c-0.01223,0.11128 -0.02624,0.22234 -0.04203,0.33317zM114.34102,273.87667h20.15076v3.64692h-24.35398v-42.83582h4.20323zM342.61327,256.63109v20.15076c-0.31565,0.09478 -0.73989,0.19553 -1.27271,0.30226c-0.17302,0.03451 -0.3463,0.06768 -0.51984,0.09952c-0.36575,0.06727 -0.73189,0.13238 -1.0984,0.19532c-0.50151,0.08613 -1.04195,0.17554 -1.62133,0.26826c-1.0302,0.16483 -2.17373,0.29876 -3.43058,0.40178c-1.25685,0.10302 -2.5446,0.15453 -3.86326,0.15453c-1.68953,0 -3.24514,-0.18543 -4.66681,-0.55631c-0.8459,-0.21599 -1.66305,-0.53202 -2.43416,-0.94139c-0.44611,-0.23889 -0.87233,-0.51318 -1.27457,-0.82025c-1.05081,-0.80356 -1.87497,-1.83376 -2.47249,-3.09061c-0.30614,-0.65569 -0.52956,-1.3469 -0.6651,-2.05773c-0.12527,-0.63172 -0.19965,-1.31062 -0.22314,-2.03671c-0.00543,-0.17013 -0.00811,-0.34035 -0.00804,-0.51057c-0.00375,-0.70829 0.05854,-1.41539 0.18606,-2.11212c0.14707,-0.81578 0.41784,-1.60432 0.80294,-2.33836c0.65933,-1.23624 1.58651,-2.25614 2.78154,-3.0597c0.77948,-0.51841 1.61986,-0.93882 2.50216,-1.2517c0.57641,-0.20659 1.16519,-0.37691 1.76288,-0.50995c1.07343,-0.23808 2.16276,-0.39777 3.25936,-0.47781c0.70486,-0.05296 1.41146,-0.07914 2.1183,-0.0785c0.41164,0.00054 0.82313,0.01519 1.23377,0.04388c0.19678,0.01353 0.39337,0.02981 0.58969,0.04883c0.58308,0.05587 1.16406,0.13195 1.74187,0.22809c0.03751,0.00629 0.07501,0.01268 0.1125,0.01916c0.45741,0.07871 0.8666,0.15762 1.22759,0.23674c0.10613,0.02312 0.21203,0.04724 0.31771,0.07232c0.42568,0.10137 0.72176,0.19265 0.88824,0.27383c0.00268,0.00143 0.00536,0.00287 0.00804,0.00432v-1.97799c0,-1.11262 -0.08242,-2.19433 -0.24725,-3.24513c-0.16483,-1.0508 -0.52541,-1.9986 -1.08172,-2.84336c-0.44383,-0.66691 -1.02193,-1.23386 -1.69736,-1.6646c-0.21046,-0.13637 -0.42792,-0.26161 -0.6515,-0.3752c-0.77553,-0.3956 -1.73939,-0.63935 -2.89157,-0.73124c-0.36442,-0.02829 -0.7298,-0.0421 -1.09531,-0.04141c-0.6136,-0.00108 -1.22714,0.0119 -1.84015,0.03894c-1.10767,0.0511 -2.03424,0.15206 -2.7797,0.30288c-0.21332,0.04257 -0.42487,0.09351 -0.63419,0.15268c-1.13281,0.32349 -1.96769,0.58763 -2.50463,0.79243c-0.00989,0.00369 -0.01979,0.0074 -0.02967,0.01113l-0.55631,-3.52329c0.58268,-0.27403 1.42869,-0.53385 2.53801,-0.77945c0.23514,-0.05197 0.47086,-0.10121 0.70713,-0.14773c1.46288,-0.28845 3.22454,-0.43268 5.28494,-0.43268c1.74599,0 3.27151,0.20624 4.57657,0.61874c0.2604,0.08198 0.51734,0.17457 0.77018,0.27754c0.74121,0.29771 1.44475,0.68174 2.09605,1.14414c0.53685,0.38358 1.02632,0.82948 1.45815,1.32834c0.80595,0.94194 1.42125,2.03147 1.81171,3.20805c0.0598,0.17579 0.11525,0.35304 0.16627,0.53158c0.41208,1.44228 0.61812,3.00819 0.61812,4.69773zM242.53941,245.87577l-0.80356,3.46148c-0.09343,-0.04521 -0.18964,-0.08444 -0.28805,-0.11745c-0.3379,-0.11745 -0.83817,-0.23962 -1.5008,-0.36655c-0.07329,-0.01409 -0.14665,-0.0279 -0.22005,-0.04142c-0.98735,-0.18132 -2.28004,-0.27403 -3.87809,-0.27815c-0.03626,-0.00005 -0.07253,-0.00005 -0.10879,0c-0.50791,-0.00072 -1.01576,0.01145 -1.52305,0.03647c-1.0269,0.05192 -1.89825,0.16072 -2.61404,0.32637c-0.01175,0.00266 -0.0235,0.00534 -0.03524,0.00804c-0.21315,0.04999 -0.42579,0.10213 -0.6379,0.15639c-0.57486,0.14753 -1.00032,0.27794 -1.27642,0.39127c-0.05297,0.02157 -0.10514,0.04507 -0.15639,0.07046v28.00091h-4.01779v-30.47339c0.35521,-0.15479 0.71558,-0.29745 1.08048,-0.42774c0.8184,-0.29505 1.79791,-0.59443 2.93855,-0.89813c0.08195,-0.02182 0.16395,-0.04346 0.24601,-0.06491c0.791,-0.20308 1.59383,-0.35688 2.40388,-0.4605c1.26509,-0.1669 2.66843,-0.25034 4.21002,-0.25034c0.87466,-0.00188 1.74871,0.04683 2.61775,0.14588c0.37546,0.04353 0.74959,0.09795 1.12189,0.16318c1.16949,0.20522 1.98149,0.41043 2.43601,0.61565c0.00185,0.00082 0.00371,0.00165 0.00556,0.00248zM159.58752,251.37705v22.376c0.19528,0.06413 0.39279,0.12124 0.59216,0.17122c0.56537,0.14423 1.28486,0.28289 2.15848,0.41599c0.41537,0.06207 0.83261,0.11093 1.25108,0.1465c0.96757,0.08489 2.10368,0.12877 3.40832,0.13166c0.04368,0.00005 0.08736,0.00005 0.13104,0c1.2908,0.01264 2.57625,-0.16756 3.81381,-0.53467c1.73532,-0.52521 3.29929,-1.50348 4.53083,-2.83408c1.13494,-1.2368 1.96883,-2.71906 2.43663,-4.33118c0.47719,-1.55849 0.71578,-3.3393 0.71578,-5.34243c0.00382,-1.28336 -0.10082,-2.56475 -0.31277,-3.8305c-0.0689,-0.40478 -0.15012,-0.80736 -0.24354,-1.20719c-0.1955,-0.85365 -0.47738,-1.68518 -0.84126,-2.48176c-0.2668,-0.58057 -0.58517,-1.13602 -0.95129,-1.65966c-0.83088,-1.1767 -1.93323,-2.13573 -3.21361,-2.79576c-0.0105,-0.00558 -0.02101,-0.01114 -0.03153,-0.01669c-1.2074,-0.63172 -2.67441,-0.97869 -4.40103,-1.04092c-0.19154,-0.00674 -0.38319,-0.01004 -0.57485,-0.00989c-0.77471,-0.00224 -1.5481,0.06395 -2.31116,0.1978c-0.13665,0.02442 -0.27286,0.0512 -0.40858,0.08035c-0.57345,0.1217 -1.14004,0.27377 -1.69736,0.45556c-0.24,0.07871 -0.47786,0.16383 -0.71331,0.25528c-0.35232,0.13641 -0.69953,0.28569 -1.04092,0.44752c-0.30914,0.14613 -0.61151,0.30618 -0.90617,0.47966c-0.19781,0.117 -0.39338,0.23776 -0.58659,0.36222c-0.19038,0.1228 -0.36634,0.2423 -0.52787,0.35851c-0.09338,0.06709 -0.18549,0.13592 -0.2763,0.20645zM144.93803,245.56671v31.95688h-4.01779v-31.95688zM194.07867,258.97995h18.2964c-0.01949,-1.02203 -0.12223,-2.04077 -0.30721,-3.04611c-0.36428,-1.91576 -1.04483,-3.4965 -2.04165,-4.74222c-1.19396,-1.50057 -2.93471,-2.46588 -4.8399,-2.68389c-0.48547,-0.06644 -0.97495,-0.09906 -1.46495,-0.09766c-0.72967,-0.00418 -1.45729,0.07777 -2.16775,0.24415c-0.58769,0.13949 -1.15681,0.34802 -1.6955,0.62122c-1.13323,0.57692 -2.12222,1.34957 -2.96698,2.31796c-0.8247,0.95208 -1.47523,2.042 -1.92174,3.2198c-0.01907,0.04953 -0.03782,0.09919 -0.05625,0.14896c-0.47389,1.27745 -0.75205,2.61672 -0.83446,4.01779zM338.59549,274.06211v-11.24981c-0.1461,-0.06527 -0.29501,-0.12404 -0.44629,-0.17616c-0.29834,-0.10467 -0.66201,-0.21181 -1.09098,-0.32142c-0.20808,-0.05308 -0.41682,-0.10356 -0.62616,-0.15144c-0.3422,-0.07659 -0.68794,-0.13641 -1.03597,-0.17926c-0.839,-0.10714 -1.85354,-0.16071 -3.04363,-0.16071c-0.98899,0 -2.01919,0.07211 -3.0906,0.21634c-1.07141,0.14423 -2.06041,0.45329 -2.96699,0.92719c-0.90657,0.47389 -1.64832,1.12292 -2.22523,1.94708c-0.29488,0.42948 -0.51225,0.9073 -0.64223,1.41179c-0.10673,0.39684 -0.17514,0.82952 -0.20522,1.29806c-0.01202,0.18849 -0.018,0.37732 -0.01792,0.5662c-0.00192,0.44839 0.02928,0.8963 0.09334,1.34009c0.07047,0.47266 0.1807,0.9074 0.33069,1.30424c0.04911,0.13034 0.10355,0.2586 0.16318,0.38447c0.39148,0.82416 0.94779,1.48349 1.66893,1.97799c0.45994,0.31178 0.95679,0.5653 1.47916,0.75473c0.36466,0.13363 0.73779,0.24287 1.11694,0.32699c0.99394,0.22294 2.11748,0.33625 3.37062,0.33996c0.01999,0.00003 0.03997,0.00003 0.05996,0c0.55968,0.00039 1.11933,-0.00681 1.67882,-0.02163c0.88721,-0.02432 1.69777,-0.06861 2.43169,-0.1329c0.41647,-0.03624 0.83232,-0.0793 1.24737,-0.12919c0.40755,-0.04904 0.78831,-0.10302 1.14228,-0.16195c0.20333,-0.03354 0.40611,-0.07043 0.60824,-0.11065zM145.74592,236.89818c0.08202,-0.31814 0.12212,-0.64563 0.11929,-0.97416c0.00104,-0.23933 -0.01944,-0.47827 -0.06119,-0.71393c-0.09547,-0.5871 -0.37744,-1.12785 -0.80418,-1.54222c-0.57692,-0.55631 -1.27745,-0.83446 -2.10161,-0.83446c-0.82416,0 -1.5247,0.27815 -2.10162,0.83446c-0.36277,0.34987 -0.62108,0.79374 -0.74607,1.28199c-0.08202,0.31814 -0.12213,0.64563 -0.1193,0.97416c-0.00104,0.23933 0.01944,0.47827 0.06119,0.71393c0.09547,0.5871 0.37744,1.12785 0.80417,1.54221c0.57692,0.55631 1.27745,0.83446 2.10162,0.83446c0.82416,0 1.52469,-0.27815 2.10161,-0.83446c0.36277,-0.34987 0.62109,-0.79373 0.74608,-1.28198z" stroke-width="0" stroke-linecap="round" />
      <path class="color" d="M113.12307,101.45325v17.00889h-1.34417v-36.9129h19.95571v1.29247h-18.61155v17.31908h17.62927v1.29247zM160.32402,117.22136v-1.55096c2.75727,1.34417 5.75579,2.01625 8.99558,2.01625c0.77272,0.00309 1.54504,-0.03592 2.31352,-0.11684c1.96042,-0.21507 3.44676,-0.72757 4.45902,-1.53752c1.20748,-0.94351 1.95158,-2.36016 2.04313,-3.88981c0.0167,-0.20223 0.02498,-0.40506 0.02482,-0.60798c0.00365,-0.46642 -0.04772,-0.93165 -0.15303,-1.38604c-0.1555,-0.68724 -0.48563,-1.32275 -0.95849,-1.84513c-0.74102,-0.80995 -1.74052,-1.4648 -2.99853,-1.96455c-0.74102,-0.29331 -1.4899,-0.56639 -2.24579,-0.81891c-0.63495,-0.21251 -1.27371,-0.41347 -1.91596,-0.60281c-1.58543,-0.48252 -3.04161,-0.97366 -4.36854,-1.47341c-1.32693,-0.49975 -2.37814,-1.2063 -3.15362,-2.11965c-0.63693,-0.75032 -1.01226,-1.76224 -1.126,-3.03575c-0.02527,-0.28847 -0.03769,-0.57793 -0.03722,-0.8675c0,-2.09656 0.81305,-3.73696 2.43915,-4.9212c0.03118,-0.02282 0.06255,-0.0454 0.09409,-0.06773c1.68882,-1.18907 3.9808,-1.78361 6.87593,-1.78361c1.02147,-0.0026 2.04205,0.0606 3.0554,0.18922c0.50101,0.06455 0.99939,0.14801 1.49409,0.25022c0.63043,0.12945 1.25544,0.28398 1.87356,0.46322c0.66485,0.19404 1.28109,0.41014 1.84875,0.6483l-0.56869,1.29247c-0.44987,-0.22254 -0.91433,-0.41426 -1.39018,-0.57386c-0.48666,-0.16544 -1.01174,-0.31243 -1.57526,-0.44099c-0.19136,-0.04366 -0.38336,-0.08451 -0.57592,-0.12253c-1.39587,-0.27573 -2.78312,-0.41359 -4.16175,-0.41359c-0.76023,-0.00364 -1.51979,0.0456 -2.27319,0.14734c-1.4355,0.20163 -2.63371,0.60918 -3.59461,1.22268c-1.14028,0.6934 -1.90489,1.86619 -2.07932,3.1893c-0.04502,0.30483 -0.06714,0.61261 -0.06617,0.92075c-0.00265,0.41105 0.03195,0.82149 0.1034,1.22629c0.08548,0.46529 0.22368,0.88026 0.41462,1.24491c0.14413,0.27744 0.32652,0.53326 0.5418,0.75997c0.41769,0.43247 0.89651,0.80139 1.4212,1.09498c0.45366,0.25523 0.92972,0.46843 1.42223,0.63693c1.18907,0.41359 2.47292,0.84441 3.85156,1.29247c1.5165,0.48252 2.98129,0.99951 4.39439,1.55096c1.4131,0.55145 2.5677,1.30108 3.46382,2.2489c0.79271,0.83855 1.23474,1.99419 1.32607,3.46692c0.01214,0.19691 0.01817,0.39415 0.01809,0.59143c0,2.30921 -0.85303,4.12728 -2.55909,5.45422c-0.73727,0.55889 -1.56416,0.98842 -2.44535,1.27024c-0.76273,0.25505 -1.61231,0.44237 -2.54875,0.56197c-0.89015,0.10932 -1.78633,0.16216 -2.68316,0.1582c-0.9606,0.00258 -1.92059,-0.04851 -2.87548,-0.15303c-0.77177,-0.08492 -1.53788,-0.21508 -2.29439,-0.38981c-1.15598,-0.26987 -2.15877,-0.56352 -3.00835,-0.88095c-0.27592,-0.10263 -0.54851,-0.21401 -0.81736,-0.33397zM154.01677,100.36757v18.09456h-1.13737l-0.20679,-5.32497h-0.1034c-0.72378,1.58543 -1.86115,2.95544 -3.41212,4.11005c-1.22836,0.91438 -2.84584,1.46669 -4.85244,1.65694c-0.55238,0.05112 -1.10686,0.07614 -1.6616,0.07496c-0.78552,0.00501 -1.56999,-0.0583 -2.34454,-0.18922c-1.59336,-0.28055 -2.87118,-0.87233 -3.83346,-1.77533c-1.39587,-1.3097 -2.0938,-3.05023 -2.0938,-5.22157c-0.01262,-0.93794 0.14792,-1.87017 0.47356,-2.74986c0.48459,-1.26386 1.34158,-2.30662 2.57098,-3.12829c0.12892,-0.08619 0.26011,-0.16894 0.39343,-0.24815c0.93197,-0.54242 1.9227,-0.9769 2.95303,-1.29505c1.8484,-0.58833 4.04353,-0.95798 6.58539,-1.10894l5.32497,-0.31019v-2.22305c0,-3.10192 -0.58592,-5.33359 -1.75776,-6.69499c-1.04707,-1.21664 -2.58959,-1.88959 -4.62755,-2.01884c-0.2494,-0.01567 -0.49923,-0.02343 -0.74911,-0.02326c-1.37863,0 -2.71418,0.1551 -4.00665,0.46529c-1.25214,0.30054 -2.59321,0.81133 -4.0232,1.53235c-0.04625,0.0233 -0.09244,0.04674 -0.13855,0.07031l-0.46529,-1.34417c1.37863,-0.62038 2.78312,-1.11152 4.21345,-1.47341c1.43033,-0.36189 2.90375,-0.54284 4.42024,-0.54284c0.81968,-0.0059 1.63794,0.06943 2.44277,0.22489c1.63919,0.32949 2.94459,1.02139 3.91618,2.0757c1.38656,1.50478 2.09294,3.89722 2.11913,7.17734c0.00042,0.06324 0.0006,0.12649 0.00052,0.18973zM197.03013,117.01457v1.29247c-0.3585,0.11158 -0.72021,0.2126 -1.08464,0.30295c-0.23213,0.05774 -0.46515,0.11186 -0.69897,0.16233c-0.2779,0.05903 -0.55865,0.10372 -0.84114,0.1339c-0.27538,0.03033 -0.56869,0.05118 -0.87991,0.06256c-0.1931,0.00698 -0.38632,0.01043 -0.57954,0.01034c-2.41261,0 -4.05835,-0.68932 -4.93723,-2.06795c-0.87888,-1.37863 -1.31832,-3.27425 -1.31832,-5.68686v-18.76664h-4.1876v-1.13737l4.1359,-0.1551l0.31019,-6.77254h1.08567v6.77254h8.89218v1.29247h-8.89218v18.61155c-0.00257,0.61219 0.03109,1.22399 0.10081,1.8322c0.07169,0.60143 0.18164,1.1503 0.32984,1.6466c0.14208,0.49208 0.34474,0.96461 0.60332,1.40672c0.59729,1.00054 1.64747,1.56751 3.15052,1.70089c0.24172,0.02106 0.48425,0.03141 0.72688,0.03102c0.77066,0 1.45877,-0.04825 2.06433,-0.14476c0.07028,-0.01122 0.14042,-0.02329 0.21041,-0.03619c0.3937,-0.07165 0.78336,-0.16398 1.16736,-0.27659c0.21651,-0.06386 0.43068,-0.13542 0.6421,-0.21455zM152.67262,104.24498l-5.22157,0.25849c-3.51551,0.17233 -6.3331,0.82718 -8.45274,1.96455c-1.90941,1.02467 -2.95889,2.56667 -3.14845,4.626c-0.02102,0.23239 -0.03137,0.46563 -0.03102,0.69897c-0.00599,0.63268 0.07543,1.26316 0.24195,1.87356c0.25864,0.94376 0.78512,1.79238 1.51581,2.44328c0.97642,0.87612 2.31197,1.38708 4.00665,1.53287c0.35248,0.02981 0.70608,0.04448 1.05982,0.04394c3.44658,0 5.9712,-0.98228 7.57387,-2.94683c1.01132,-1.25804 1.72008,-2.73162 2.07157,-4.30702c0.25093,-1.09723 0.37975,-2.21884 0.38412,-3.34439z" stroke-width="0.05" stroke-linecap="round" />
      <path class="color" d="M111.77342,153.39753v17.22446h-1.3612v-37.38074h20.20864v1.30885h-18.84743v17.53858h17.85271v1.30885zM174.44115,155.38698v1.30885h-20.57511c-0.02443,2.94613 0.41831,5.41672 1.32822,7.41175c0.37665,0.83621 0.86312,1.61847 1.44654,2.32609c1.34075,1.60462 3.19194,2.70006 5.24377,3.10302c0.97832,0.20632 1.97598,0.30689 2.9758,0.29999c0.64218,0.00114 1.28422,-0.01911 1.92506,-0.06073c0.60591,-0.04049 1.17238,-0.10122 1.69941,-0.18219c0.23252,-0.0357 0.46417,-0.0769 0.69474,-0.12356c0.48603,-0.10067 0.96643,-0.22684 1.43921,-0.378c0.51586,-0.16265 1.06087,-0.36089 1.63501,-0.59474c0.38347,-0.15646 0.76364,-0.32089 1.14027,-0.49317v1.41356c-1.20561,0.54356 -2.46309,0.96383 -3.75326,1.2544c-0.08381,0.01874 -0.16776,0.03689 -0.25182,0.05445c-1.34375,0.27922 -2.85329,0.41883 -4.52862,0.41883c-2.38455,0 -4.40838,-0.41377 -6.07149,-1.24131c-0.35294,-0.17528 -0.69445,-0.3727 -1.02247,-0.59108c-1.83239,-1.22159 -3.17614,-2.89692 -4.03126,-5.02598c-0.54888,-1.38722 -0.9192,-2.83859 -1.10205,-4.3192c-0.12249,-0.96367 -0.18282,-1.93423 -0.18062,-2.90565c0,-2.6177 0.43628,-5.03471 1.30885,-7.25103c0.52123,-1.3551 1.27098,-2.61077 2.21667,-3.71242c0.52157,-0.60044 1.10329,-1.14585 1.73606,-1.62769c1.76258,-1.34375 3.98763,-2.01563 6.67513,-2.01563c0.81609,-0.00537 1.63059,0.07269 2.4308,0.23298c1.29105,0.2677 2.40043,0.76594 3.32814,1.49471c1.46591,1.15179 2.54789,2.69623 3.24595,4.63333c0.42711,1.20352 0.72031,2.45044 0.87431,3.71818c0.11747,0.94617 0.17517,1.89881 0.17277,2.85224zM202.71231,155.38698v1.30885h-20.57511c-0.02443,2.94613 0.41831,5.41672 1.32822,7.41175c0.37665,0.83621 0.86312,1.61847 1.44654,2.32609c1.34075,1.60462 3.19194,2.70006 5.24377,3.10302c0.97832,0.20632 1.97598,0.30689 2.9758,0.29999c0.64218,0.00114 1.28422,-0.01911 1.92506,-0.06073c0.60591,-0.04049 1.17238,-0.10122 1.69941,-0.18219c0.23252,-0.0357 0.46417,-0.0769 0.69474,-0.12356c0.48603,-0.10067 0.96643,-0.22684 1.43921,-0.378c0.51586,-0.16265 1.06087,-0.36089 1.63501,-0.59474c0.38347,-0.15646 0.76364,-0.32089 1.14027,-0.49317v1.41356c-1.20561,0.54356 -2.46309,0.96383 -3.75326,1.2544c-0.08381,0.01874 -0.16776,0.03689 -0.25182,0.05445c-1.34375,0.27922 -2.85329,0.41883 -4.52862,0.41883c-2.38455,0 -4.40838,-0.41377 -6.07149,-1.24131c-0.35294,-0.17528 -0.69445,-0.3727 -1.02247,-0.59108c-1.83239,-1.22159 -3.17614,-2.89692 -4.03126,-5.02598c-0.54888,-1.38722 -0.9192,-2.83859 -1.10205,-4.3192c-0.12249,-0.96367 -0.18282,-1.93423 -0.18062,-2.90565c0,-2.6177 0.43628,-5.03471 1.30885,-7.25103c0.52123,-1.3551 1.27098,-2.61077 2.21667,-3.71242c0.52157,-0.60044 1.10329,-1.14585 1.73606,-1.62769c1.76258,-1.34375 3.98763,-2.01563 6.67513,-2.01563c0.81609,-0.00537 1.63059,0.07269 2.4308,0.23298c1.29105,0.2677 2.40043,0.76594 3.32814,1.49471c1.46591,1.15179 2.54789,2.69623 3.24595,4.63333c0.42711,1.20352 0.72031,2.45044 0.87431,3.71818c0.11747,0.94617 0.17517,1.89881 0.17277,2.85224zM149.57301,143.13615l-0.31412,1.2565c-0.35673,-0.09428 -0.71602,-0.17861 -1.07744,-0.25287c-0.25914,-0.05324 -0.5196,-0.09985 -0.78112,-0.13979c-0.4478,-0.06771 -0.96401,-0.10924 -1.54863,-0.1246c-0.17308,-0.00433 -0.34621,-0.00642 -0.51935,-0.00628c-0.85918,-0.0086 -1.71575,0.09613 -2.54754,0.31151c-1.57471,0.3982 -2.944,1.37 -3.83964,2.72502c-0.6441,0.97739 -1.12734,2.05171 -1.43136,3.18207c-0.26701,0.95354 -0.4464,1.99696 -0.5382,3.13024c-0.04905,0.61708 -0.07315,1.23588 -0.07225,1.8549v15.54913h-1.3612v-27.6429h1.2565l0.10471,5.28775h0.10471c0.4671,-1.52551 1.38184,-2.87545 2.62555,-3.87472c0.075,-0.06204 0.15092,-0.12295 0.22774,-0.18272c0.88446,-0.67734 1.90754,-1.15107 2.99622,-1.38738c0.75983,-0.17451 1.58475,-0.26177 2.47477,-0.26177c0.83766,0 1.5968,0.05235 2.2774,0.15706c0.65207,0.09918 1.29782,0.23623 1.93396,0.41046c0.00977,0.00278 0.01955,0.00558 0.02932,0.00838zM153.91839,155.38698h19.1092c0.0349,-3.45536 -0.66315,-6.2563 -2.09416,-8.40281c-1.14531,-1.75337 -3.01703,-2.90023 -5.09928,-3.12449c-0.47891,-0.06475 -0.9617,-0.09658 -1.44497,-0.09528c-1.20425,-0.01276 -2.40195,0.17859 -3.54227,0.56595c-1.39431,0.48992 -2.64898,1.31074 -3.6564,2.39205c-0.92769,0.99995 -1.65447,2.16894 -2.14075,3.44332c-0.38707,0.97762 -0.68252,2.06309 -0.88635,3.25642c-0.11005,0.6511 -0.1918,1.30666 -0.24502,1.96484zM182.18953,155.38698h19.1092c0.0349,-3.45536 -0.66315,-6.2563 -2.09416,-8.40281c-1.14531,-1.75337 -3.01703,-2.90023 -5.09928,-3.12449c-0.47891,-0.06475 -0.9617,-0.09658 -1.44497,-0.09528c-1.20425,-0.01276 -2.40195,0.17859 -3.54227,0.56595c-1.39431,0.48992 -2.64898,1.31074 -3.6564,2.39205c-0.92769,0.99995 -1.65447,2.16894 -2.14075,3.44332c-0.38707,0.97762 -0.68252,2.06309 -0.88635,3.25642c-0.11005,0.6511 -0.1918,1.30666 -0.24502,1.96484z" stroke-width="0.05" stroke-linecap="round" />
      <path class="color" d="M176.00349,199.94728v19.16754h-1.38048v-19.11444c0.00416,-0.73851 -0.04856,-1.47624 -0.1577,-2.20666c-0.12035,-0.77449 -0.31008,-1.46863 -0.56918,-2.08241c-0.28928,-0.71093 -0.7193,-1.35604 -1.26421,-1.89657c-1.28414,-1.26289 -3.01961,-1.96042 -4.82055,-1.93747c-0.03027,-0.00034 -0.06053,-0.00051 -0.0908,-0.00053c-1.01222,-0.00853 -2.02095,0.11971 -2.99884,0.38123c-1.31352,0.35377 -2.52412,1.01475 -3.53193,1.92844c-1.26615,1.14722 -2.06046,2.85956 -2.38294,5.13701c-0.11449,0.84019 -0.16984,1.68738 -0.16566,2.53532v17.25609h-1.38049v-19.11444c0.00416,-0.73851 -0.04856,-1.47624 -0.15769,-2.20666c-0.12035,-0.77449 -0.31008,-1.46863 -0.56919,-2.08241c-0.28928,-0.71093 -0.7193,-1.35604 -1.26421,-1.89657c-1.28414,-1.26289 -3.01962,-1.96042 -4.82056,-1.93747c-0.03027,-0.00034 -0.06053,-0.00051 -0.09079,-0.00053c-1.27161,-0.00931 -2.53401,0.21642 -3.7236,0.66582c-0.26807,0.10274 -0.5315,0.21719 -0.78954,0.343c-1.17809,0.57896 -2.18168,1.45981 -2.90858,2.55284c-0.14577,0.214 -0.28252,0.43401 -0.4099,0.65945c-0.38137,0.68731 -0.6682,1.42296 -0.85272,2.18702c-0.26335,1.04846 -0.39503,2.23976 -0.39503,3.57387v17.25609h-1.38049v-28.03452h1.11501l0.21238,5.09718h0.10619c0.26806,-0.60299 0.59362,-1.17873 0.97218,-1.71924c0.21158,-0.30387 0.43639,-0.5983 0.67379,-0.88245c0.43032,-0.51028 0.92671,-0.96096 1.47606,-1.34014c0.44151,-0.30651 0.90667,-0.57744 1.39111,-0.81024c1.03112,-0.50052 2.28312,-0.78653 3.75599,-0.85802c0.2522,-0.01215 0.50466,-0.01817 0.75715,-0.01805c1.94684,0 3.6105,0.49555 4.99099,1.48667c1.09956,0.79535 1.93787,1.89961 2.40842,3.17247c0.14166,0.36812 0.25943,0.745 0.35255,1.12828h0.10619c0.67255,-1.73446 1.79641,-3.13264 3.37158,-4.19456c1.40704,-0.94829 3.18822,-1.47323 5.34355,-1.57482c0.26282,-0.01219 0.52589,-0.01821 0.789,-0.01805c0.98044,-0.00946 1.95624,0.1355 2.89159,0.42954c1.14928,0.37051 2.19567,1.00537 3.05513,1.85358c0.75886,0.75946 1.33261,1.68349 1.67676,2.70045c0.43963,1.23182 0.65945,2.70328 0.65945,4.41437zM109.26222,218.106v-1.53977c0.92358,0.3212 1.86134,0.60007 2.81035,0.83572c0.60846,0.15197 1.22048,0.28936 1.83552,0.41202c1.57305,0.31468 3.35511,0.48211 5.3462,0.50229c0.13822,0.00141 0.27645,0.00212 0.41468,0.00212c1.1468,0.00495 2.29122,-0.10479 3.41617,-0.3276c0.72513,-0.14563 1.438,-0.34675 2.13232,-0.60157c0.96652,-0.34774 1.87093,-0.84843 2.67868,-1.48297c0.51226,-0.40723 0.97631,-0.87164 1.38314,-1.3842c0.63996,-0.81803 1.08601,-1.77058 1.30456,-2.78593c0.15681,-0.68564 0.23522,-1.42951 0.23522,-2.23161c0.00383,-0.59547 -0.05131,-1.18985 -0.1646,-1.77445c-0.19539,-0.97484 -0.56529,-1.80808 -1.1097,-2.49974c-0.47776,-0.59851 -1.03698,-1.12716 -1.66136,-1.57057c-0.52459,-0.37875 -1.11465,-0.72564 -1.77021,-1.04067c-0.06823,-0.03276 -0.13673,-0.06498 -0.20548,-0.09664c-0.73764,-0.33772 -1.48655,-0.65028 -2.24542,-0.93714c-0.77874,-0.29628 -1.6127,-0.58794 -2.50187,-0.87501c-0.30176,-0.09727 -0.60424,-0.19232 -0.90741,-0.28512c-2.05303,-0.67255 -3.87598,-1.38933 -5.46885,-2.15037c-0.7825,-0.36792 -1.51742,-0.82951 -2.1886,-1.37465c-0.58797,-0.48051 -1.11061,-1.03582 -1.55464,-1.6518c-0.46786,-0.66427 -0.81162,-1.40773 -1.01466,-2.19445c-0.22619,-0.83679 -0.33928,-1.77782 -0.33928,-2.8231c-0.00602,-0.8269 0.08721,-1.65152 0.27769,-2.4562c0.24377,-1.03414 0.70076,-2.006 1.34173,-2.85336c1.07961,-1.41589 2.53089,-2.4778 4.35385,-3.18574c1.30088,-0.49811 2.66241,-0.82041 4.04854,-0.95837c0.6747,-0.06998 1.3526,-0.10455 2.03091,-0.10354c1.66367,0 3.28308,0.15044 4.85825,0.45131c1.46399,0.28387 2.89271,0.7263 4.26093,1.31943c0.14668,0.06307 0.29271,0.12767 0.43804,0.19379l-0.58405,1.2212c-1.62826,-0.70794 -3.19459,-1.19466 -4.69897,-1.46014c-1.18263,-0.21153 -2.37861,-0.33997 -3.57918,-0.38441c-0.26697,-0.00924 -0.53408,-0.01384 -0.80121,-0.01381c-1.16639,-0.00517 -2.32999,0.11463 -3.47087,0.35734c-0.58742,0.12691 -1.16611,0.29131 -1.73252,0.4922c-0.85495,0.29708 -1.6616,0.7182 -2.39408,1.24987c-0.54083,0.39681 -1.02976,0.85988 -1.45535,1.37837c-0.60629,0.74975 -1.02984,1.63028 -1.23713,2.57196c-0.14867,0.63609 -0.223,1.32739 -0.223,2.07392c-0.00379,0.61463 0.04864,1.22831 0.15663,1.83339c0.19964,1.07855 0.5899,1.9895 1.17076,2.73283c0.65916,0.83435 1.46931,1.53735 2.38824,2.07233c0.38549,0.22772 0.78484,0.43112 1.19572,0.60901c1.50438,0.65485 3.15919,1.26544 4.96445,1.8318c0.94341,0.29352 1.87893,0.61184 2.80557,0.95466c1.13058,0.41981 2.16879,0.85378 3.1146,1.30191c0.74858,0.34948 1.4589,0.77564 2.11957,1.27164c0.68506,0.51469 1.29422,1.1233 1.80951,1.80791c0.50041,0.68317 0.86588,1.45553 1.07678,2.27568c0.1653,0.61237 0.26848,1.27961 0.30954,2.00171c0.01394,0.24647 0.02085,0.49329 0.02071,0.74015c0.00619,0.86568 -0.08933,1.72909 -0.28459,2.57249c-0.25699,1.11774 -0.74814,2.16825 -1.44102,3.0822c-1.02513,1.33042 -2.36967,2.38038 -3.9089,3.05247c-0.23368,0.10495 -0.47061,0.20252 -0.71042,0.29256c-1.47993,0.54931 -3.02871,0.8913 -4.60234,1.01625c-0.57959,0.04865 -1.16098,0.07274 -1.7426,0.07221c-0.78868,0.00135 -1.57726,-0.01848 -2.36488,-0.05946c-0.76953,-0.04141 -1.48331,-0.1046 -2.14135,-0.18955c-0.50999,-0.06435 -1.01711,-0.14955 -1.52013,-0.25539c-1.57517,-0.33628 -2.99991,-0.6814 -4.2742,-1.03536zM203.0823,200.53133v18.58349h-1.16811l-0.21238,-5.46885h-0.10619c-0.74334,1.62826 -1.91145,3.0353 -3.50432,4.2211c-1.26155,0.93908 -2.92274,1.50633 -4.98356,1.70172c-0.56731,0.0525 -1.13677,0.0782 -1.70649,0.07699c-0.80675,0.00515 -1.61241,-0.05987 -2.40789,-0.19433c-1.63641,-0.28813 -2.94875,-0.8959 -3.93704,-1.82331c-1.43358,-1.34509 -2.15037,-3.13265 -2.15037,-5.36267c-0.01297,-0.96329 0.15191,-1.9207 0.48635,-2.82416c0.49768,-1.29801 1.37784,-2.36895 2.64045,-3.21282c0.1324,-0.08853 0.26713,-0.1735 0.40406,-0.25485c0.95716,-0.55707 1.97466,-1.00331 3.03283,-1.33005c1.89835,-0.60423 4.15279,-0.98386 6.76333,-1.1389l5.46885,-0.31857v-2.28312c0,-3.18574 -0.60175,-5.4777 -1.80525,-6.87589c-1.07536,-1.24917 -2.65956,-1.94029 -4.75259,-2.07339c-0.25614,-0.0161 -0.51272,-0.02407 -0.76936,-0.0239c-1.41589,0 -2.78752,0.15929 -4.11491,0.47786c-1.28598,0.30866 -2.66328,0.83325 -4.13191,1.57376c-0.0475,0.02393 -0.09493,0.048 -0.14229,0.07221l-0.47786,-1.38049c1.41589,-0.63715 2.85832,-1.14156 4.32729,-1.51323c1.46898,-0.37167 2.9822,-0.5575 4.53968,-0.5575c0.84183,-0.00607 1.6822,0.0713 2.50878,0.23096c1.68349,0.33839 3.02415,1.04899 4.022,2.13179c1.42402,1.54543 2.14949,4.0027 2.17639,7.3718c0.00043,0.06477 0.00062,0.12956 0.00054,0.19433zM242.85096,217.62814v1.32739c-0.36819,0.11459 -0.73967,0.21834 -1.11395,0.31114c-0.2384,0.0593 -0.47772,0.11488 -0.71785,0.16672c-0.28541,0.06063 -0.57374,0.10652 -0.86387,0.13752c-0.28282,0.03115 -0.58405,0.05256 -0.90369,0.06424c-0.19832,0.00717 -0.39675,0.01071 -0.5952,0.01062c-2.4778,0 -4.16801,-0.70794 -5.07064,-2.12382c-0.90263,-1.41589 -1.35394,-3.36273 -1.35394,-5.84053v-19.27373h-4.30075v-1.1681l4.24766,-0.15929l0.31858,-6.95553h1.11501v6.95553h9.13245v1.32739h-9.13245v19.11444c-0.00264,0.62873 0.03193,1.25707 0.10354,1.88171c0.07362,0.61768 0.18655,1.18138 0.33875,1.6911c0.14592,0.50538 0.35405,0.99067 0.61962,1.44474c0.61343,1.02758 1.69198,1.60986 3.23565,1.74684c0.24825,0.02164 0.49734,0.03226 0.74653,0.03186c0.79148,0 1.49818,-0.04956 2.12011,-0.14867c0.07218,-0.01153 0.14421,-0.02391 0.21609,-0.03717c0.40434,-0.07359 0.80453,-0.16841 1.19891,-0.28406c0.22237,-0.06558 0.44232,-0.13908 0.65945,-0.22034zM226.55059,191.23959l-0.31858,1.2743c-0.36178,-0.09562 -0.72616,-0.18114 -1.09271,-0.25645c-0.26281,-0.05399 -0.52697,-0.10127 -0.79219,-0.14177c-0.45414,-0.06867 -0.97767,-0.11079 -1.57057,-0.12636c-0.17554,-0.00439 -0.35112,-0.00651 -0.52671,-0.00637c-0.87135,-0.00872 -1.74006,0.0975 -2.58364,0.31592c-1.59701,0.40384 -2.9857,1.38941 -3.89403,2.76363c-0.65322,0.99123 -1.14332,2.08078 -1.45164,3.22716c-0.27079,0.96705 -0.45273,2.02524 -0.54582,3.17459c-0.04975,0.62582 -0.07419,1.25339 -0.07327,1.88118v15.76942h-1.38049v-28.03452h1.2743l0.10619,5.36266h0.10619c0.47372,-1.54712 1.40142,-2.91619 2.66275,-3.92961c0.07606,-0.06292 0.15306,-0.12468 0.23096,-0.1853c0.89699,-0.68694 1.93457,-1.16738 3.03867,-1.40704c0.7706,-0.17699 1.60721,-0.26548 2.50983,-0.26548c0.84953,0 1.61942,0.0531 2.30966,0.15929c0.66132,0.10075 1.31621,0.23993 1.96136,0.4168c0.00991,0.00265 0.01983,0.0053 0.02974,0.00796zM201.7018,204.51351l-5.36266,0.26548c-3.6105,0.17699 -6.50421,0.84953 -8.68114,2.01763c-1.961,1.05236 -3.03885,2.63602 -3.23353,4.751c-0.02158,0.23868 -0.03222,0.47821 -0.03186,0.71785c-0.00616,0.64978 0.07746,1.2973 0.24849,1.92419c0.26563,0.96926 0.80634,1.84081 1.55677,2.5093c1.0028,0.8998 2.37444,1.42455 4.11491,1.57429c0.36201,0.03062 0.72516,0.04568 1.08846,0.04513c3.53971,0 6.13255,-1.00882 7.77851,-3.02645c1.03865,-1.29203 1.76655,-2.80543 2.12754,-4.4234c0.2577,-1.12688 0.39001,-2.2788 0.3945,-3.43476z" stroke-width="0.05" stroke-linecap="round" />
    </g>
  </g>
  <style>
    .color { fill: #202020; stroke: #202020; }
    @media (prefers-color-scheme: dark) {
     .color { fill: #dfdfdf; stroke: #dfdfdf; }
    }
  </style>
</svg>
