<svg version="1.1" xmlns="http://www.w3.org/2000/svg" xmlns:xlink="http://www.w3.org/1999/xlink" width="340.35112" height="57.98444" viewBox="0,0,340.35112,57.98444">
  <g transform="translate(-69.82444,-151.00778)">
    <g data-paper-data="{&quot;isPaintingLayer&quot;:true}" fill-rule="evenodd" stroke-linejoin="miter" stroke-miterlimit="10" stroke-dasharray="" stroke-dashoffset="0" style="mix-blend-mode: normal">
      <g stroke="none" stroke-width="1" stroke-linecap="butt">
        <path d="M108.49251,207.71627c-0.16163,0.18434 -0.36622,0.3208 -0.61377,0.40919c-2.81295,0.71444 -5.67724,0.98717 -8.5929,0.81838c0,-0.06814 0,-0.13646 0,-0.20459c2.35036,-13.16986 -1.53691,-24.11559 -11.6618,-32.83718c-5.15739,-4.24221 -11.09058,-6.15176 -17.7996,-5.7286c9.5545,-7.15051 19.64769,-7.96888 30.27977,-2.45512c9.39164,5.85795 13.92664,14.34851 13.60544,25.47184c-0.38546,5.35174 -2.1245,10.19384 -5.21712,14.52611z" fill="#c3f0fe" />
        <path d="M98.90955,164.77182c0,0.07162 0,0.14344 0,0.21506c-4.77283,3.52252 -8.07048,8.11046 -9.89289,13.76403c-1.84943,-11.11939 1.48405,-20.36711 10.00043,-27.74312c-1.23726,4.56312 -1.27318,9.15114 -0.10754,13.76403z" fill="#fffe80" />
        <path d="M99.68461,168.21549c-0.52984,-1.06481 -0.97676,-2.18213 -1.34078,-3.35197c0,-0.07441 0,-0.14905 0,-0.22347c0.99062,-0.57743 1.95888,-1.21073 2.90504,-1.89945c0.18592,-0.15374 0.33475,-0.11643 0.44693,0.11174c-0.84827,1.72626 -1.51866,3.51398 -2.01118,5.36315z" fill="#ffd381" />
        <path d="M98.52349,164.60686c0.33196,1.06682 0.73954,2.08575 1.22272,3.05678c0,0.20379 0,0.40757 0,0.61136c-0.47726,1.34397 -0.68106,2.73664 -0.61136,4.17761c0.92661,12.42704 6.76833,21.69929 17.52555,27.81673c-10.31298,-0.2478 -18.29465,-4.66302 -23.9448,-13.24606c-1.61188,-2.7672 -2.80062,-5.68827 -3.56624,-8.76279c0,-0.20379 0,-0.40757 0,-0.61136c1.72686,-5.35712 4.85158,-9.70447 9.37413,-13.04227z" fill="#ffe93f" />
        <path d="M99.60943,167.83958c5.62984,11.8109 14.8601,18.72957 27.69079,20.7562c0,0.06912 0,0.13844 0,0.20755c-0.92939,2.95403 -2.3652,5.61767 -4.30745,7.99114c5.26802,-1.49009 9.57548,-4.43042 12.92237,-8.82138c0.24819,-0.08966 0.45331,-0.22812 0.61535,-0.41513c1.49919,-0.28684 2.90097,-0.84041 4.2049,-1.6605c-3.71651,7.03116 -9.42553,11.63198 -17.12727,13.80288c-2.19065,0.51662 -4.37842,0.82797 -6.56373,0.93403c-0.13681,-0.06912 -0.27343,-0.13845 -0.41024,-0.20756c-10.82751,-6.23081 -16.7074,-15.67487 -17.64007,-28.33221c-0.07015,-1.46767 0.13497,-2.88616 0.61536,-4.25502z" fill="#fefe7f" />
        <path d="M100.74635,165.98855c0.75763,3.04241 1.93395,5.93297 3.52901,8.67128c5.59116,8.4934 13.48948,12.86253 23.69476,13.10773c0.13451,0.06715 0.2688,0.1345 0.40331,0.20165c5.62584,3.04381 11.50759,3.64879 17.64504,1.81492c0.10083,0.06715 0.20166,0.13451 0.30249,0.20166c-8.63377,9.38373 -18.91831,11.76995 -30.8536,7.15884c-10.09837,-5.09871 -15.34146,-13.33299 -15.72929,-24.70305c-0.03629,-2.23558 0.2998,-4.38645 1.00829,-6.45303z" fill="#ffd27f" />
        <path d="M119.48079,177.80578c-3.67105,4.75952 -8.39571,7.94664 -14.17395,9.56179c2.13037,-2.57269 3.70526,-5.45989 4.72466,-8.66185c3.20624,0.18561 6.356,-0.11429 9.44929,-0.89993z" fill="#c3f0be" />
      </g>
      <path class="color" d="M329.69615,204.07756h-4.01779v-47.22448l4.01779,-0.74175v16.93652c1.31866,-0.4945 2.65792,-0.87567 4.01779,-1.14352c1.35987,-0.26785 2.71974,-0.40178 4.0796,-0.40178c0.87147,-0.00323 1.74233,0.0461 2.60785,0.14773c0.88639,0.10755 1.70375,0.27403 2.45209,0.49944c0.38083,0.114 0.75515,0.24875 1.12127,0.40364c1.64832,0.70054 2.96699,1.69983 3.95598,2.99789c0.98899,1.29806 1.67923,2.85366 2.07071,4.66682c0.22717,1.06738 0.38574,2.14821 0.47472,3.23586c0.07634,0.91798 0.11387,1.83877 0.1125,2.75992v17.86371h-4.01779v-16.56565c0.00144,-0.80113 -0.02019,-1.60214 -0.0649,-2.40202c-0.07252,-1.25232 -0.20542,-2.36782 -0.39869,-3.34651c-0.11557,-0.59928 -0.27548,-1.18915 -0.47843,-1.76474c-0.2831,-0.79078 -0.63873,-1.47999 -1.06688,-2.06762c-0.72114,-0.98899 -1.67923,-1.69984 -2.87426,-2.13252c-1.19504,-0.43268 -2.69913,-0.64902 -4.51229,-0.64902c-0.43493,0.00099 -0.86955,0.02285 -1.30238,0.06552c-0.31899,0.03098 -0.63704,0.07097 -0.95377,0.11992c-0.80356,0.12363 -1.5556,0.25755 -2.25614,0.40178c-0.70054,0.14423 -1.32896,0.29876 -1.88527,0.46359c-0.11253,0.0332 -0.22483,0.06719 -0.33688,0.10199c-0.30165,0.09437 -0.52293,0.17163 -0.66386,0.2318c-0.02735,0.01156 -0.05436,0.02393 -0.08098,0.03709zM318.32271,163.15792l-1.35986,3.64692c-0.78872,-0.47307 -1.74043,-0.94037 -2.85511,-1.4019c-0.35438,-0.14622 -0.71108,-0.28675 -1.06996,-0.42156c-0.71771,-0.26513 -1.45794,-0.46478 -2.21164,-0.59649c-0.74092,-0.13434 -1.53954,-0.22355 -2.39584,-0.26765c-0.43151,-0.0218 -0.86351,-0.03252 -1.29558,-0.03214c-1.14983,-0.00522 -2.29797,0.08825 -3.43181,0.27939c-1.23572,0.20625 -2.44007,0.56934 -3.58387,1.08048c-1.9986,0.90658 -3.67782,2.18403 -5.03769,3.83236c-1.08659,1.32937 -1.95249,2.82471 -2.56459,4.42884c-0.18408,0.47436 -0.34925,0.95584 -0.49511,1.44331c-0.43194,1.46188 -0.72336,2.96165 -0.87032,4.4789c-0.10131,1.01756 -0.15124,2.03958 -0.14958,3.06217c-0.0045,1.39676 0.08615,2.7922 0.27135,4.17665c0.15954,1.19034 0.40977,2.36676 0.74854,3.51897c0.34857,1.19387 0.81831,2.34896 1.4019,3.44726c0.45312,0.84786 0.98763,1.64963 1.59599,2.39399c1.31866,1.60711 2.93607,2.84336 4.85225,3.70873c1.24705,0.55509 2.56646,0.93073 3.91889,1.11571c0.88258,0.12395 1.77287,0.18489 2.66411,0.18234c0.95875,0.00232 1.9172,-0.03398 2.87303,-0.10879c0.92677,-0.075 1.78678,-0.18874 2.58004,-0.34121c0.46336,-0.08829 0.92282,-0.19594 1.37717,-0.32266c0.52127,-0.14544 1.03899,-0.30331 1.55273,-0.47348c0.96798,-0.32266 1.76618,-0.64944 2.3946,-0.98034c0.07561,-0.03966 0.15061,-0.08047 0.22499,-0.12239l1.17443,3.5851c-0.09101,0.06395 -0.18552,0.12276 -0.2831,0.17616c-0.20027,0.11126 -0.45184,0.23015 -0.75473,0.35666c-0.14763,0.06162 -0.29621,0.12097 -0.44567,0.17802c-0.48007,0.18379 -1.04751,0.37232 -1.70231,0.56559c-0.31745,0.09347 -0.636,0.1831 -0.95561,0.26888c-0.53393,0.14247 -1.07264,0.26637 -1.61516,0.37149c-0.56991,0.11167 -1.17545,0.21223 -1.81665,0.30165c-0.09226,0.01289 -0.18457,0.02545 -0.27692,0.0377c-1.40107,0.18544 -2.96698,0.27815 -4.69772,0.27815c-2.76094,0 -5.32614,-0.4945 -7.69561,-1.48349c-2.36946,-0.98899 -4.42987,-2.43128 -6.18122,-4.32685c-1.22617,-1.34055 -2.25554,-2.84861 -3.05723,-4.47891c-0.40972,-0.82412 -0.7717,-1.6711 -1.08418,-2.53677c-0.58705,-1.64357 -0.99753,-3.34495 -1.2245,-5.07539c-0.19775,-1.48325 -0.2946,-2.97822 -0.2899,-4.47458c0,-3.5851 0.54601,-6.76844 1.63802,-9.54998c0.57909,-1.49588 1.31134,-2.92785 2.18506,-4.27307c0.63902,-0.97859 1.36629,-1.89662 2.1727,-2.7426c1.81315,-1.89557 3.91477,-3.32755 6.30484,-4.29594c2.39007,-0.96839 4.88316,-1.45258 7.47927,-1.45258c1.60712,0 3.07,0.10302 4.38866,0.30906c0.54806,0.08477 1.09366,0.18473 1.63617,0.29979c0.66057,0.14135 1.26901,0.29896 1.82532,0.47286c0.75741,0.23654 1.43012,0.47307 2.01816,0.70961c0.17323,0.06969 0.34529,0.14223 0.51613,0.21758c0.20441,0.0899 0.40718,0.18346 0.60823,0.28063c0.36757,0.17843 0.67273,0.34491 0.91544,0.49944c0.028,0.01785 0.05581,0.03598 0.08344,0.05439zM199.02528,156.11134v17.92552c0.23488,-0.17684 0.48055,-0.3389 0.73556,-0.48523c0.54477,-0.31731 1.22801,-0.6447 2.0497,-0.98219c0.19369,-0.07949 0.3882,-0.15697 0.58351,-0.23242c1.54531,-0.59751 3.36876,-0.89628 5.47037,-0.89628c2.30766,0 4.35776,0.41208 6.15031,1.23624c1.79255,0.82416 3.30694,1.97799 4.54319,3.46148c0.98765,1.19598 1.78054,2.54021 2.34948,3.98317c0.17124,0.42772 0.32568,0.86196 0.46298,1.30176c0.43968,1.42424 0.72626,2.89129 0.85486,4.3763c0.06966,0.77481 0.1041,1.55238 0.10323,2.33032c0.00522,1.27364 -0.09651,2.54546 -0.30411,3.80206c-0.18004,1.08473 -0.46107,2.15027 -0.83941,3.1827c-0.46079,1.26669 -1.08103,2.46955 -1.84571,3.57955c-0.412,0.59285 -0.86955,1.15271 -1.36852,1.67449c-1.38047,1.44228 -3.0288,2.5446 -4.94497,3.30695c-1.36611,0.53592 -2.79894,0.883 -4.25886,1.03164c-0.71039,0.07549 -1.42431,0.11285 -2.1387,0.11188c-0.91934,0.00147 -1.83858,-0.02038 -2.75682,-0.06553c-0.89834,-0.04574 -1.73322,-0.11538 -2.50463,-0.20892c-0.59842,-0.07117 -1.1939,-0.1652 -1.78513,-0.28186c-0.62633,-0.12456 -1.25032,-0.26057 -1.87167,-0.40796c-1.03597,-0.24684 -1.93678,-0.50232 -2.70243,-0.76647v-46.23548zM396.08239,161.98349v10.13719h12.7333v3.39966h-12.7333v16.99834c-0.00119,0.58354 0.01716,1.16697 0.05501,1.74928c0.03708,0.55054 0.09292,1.05987 0.16751,1.528c0.05977,0.38482 0.14024,0.76613 0.24107,1.14229c0.1025,0.38235 0.23117,0.75719 0.38509,1.12189c0.25961,0.60741 0.57423,1.10912 0.94387,1.50512c0.57691,0.61812 1.27745,1.0302 2.10162,1.23624c0.52508,0.12938 1.05956,0.21702 1.59846,0.26208c0.3729,0.03188 0.74701,0.04755 1.12127,0.04698c0.53107,0.00159 1.06194,-0.02048 1.59105,-0.06614c0.48749,-0.04368 0.93851,-0.10899 1.35307,-0.19594c0.38639,-0.0786 0.76605,-0.1873 1.13549,-0.32513c0.30176,-0.11428 0.60159,-0.2336 0.89936,-0.35789c0.57032,-0.239 1.0473,-0.46524 1.43095,-0.6787c0.02687,-0.01488 0.05366,-0.02993 0.08036,-0.04513l0.989,3.33786c-0.17795,0.11236 -0.36203,0.21471 -0.55137,0.30659c-0.59257,0.29217 -1.41839,0.61235 -2.47744,0.96056c-1.44229,0.47389 -3.00818,0.71084 -4.69772,0.71084c-0.6983,0.00225 -1.39619,-0.03407 -2.09049,-0.10879c-0.7129,-0.07912 -1.37223,-0.20171 -1.97799,-0.36778c-0.30721,-0.08354 -0.61005,-0.18236 -0.9074,-0.29608c-0.77002,-0.28923 -1.4881,-0.70129 -2.12633,-1.22017c-0.40472,-0.33326 -0.76975,-0.71198 -1.0879,-1.12869c-0.48723,-0.64532 -0.88056,-1.35644 -1.16825,-2.11212c-0.22627,-0.58883 -0.40406,-1.19517 -0.53159,-1.81295c-0.32966,-1.56591 -0.4945,-3.42027 -0.4945,-5.56309v-29.42258zM255.83064,188.93358h-22.43781c0.03053,1.18275 0.15997,2.36088 0.38695,3.52206c0.25508,1.26468 0.63234,2.3983 1.13178,3.4009c0.37245,0.75575 0.83823,1.4618 1.38644,2.10162c0.98314,1.11571 2.24644,1.94859 3.65928,2.41253c0.92759,0.32389 1.96336,0.54147 3.10729,0.65273c0.62726,0.05949 1.25705,0.08859 1.88712,0.08716c0.63881,0.00134 1.27749,-0.01887 1.91494,-0.06058c1.26303,-0.0853 2.32599,-0.26188 3.18889,-0.52973c0.02952,-0.00911 0.05898,-0.01837 0.08839,-0.02782c0.29854,-0.096 0.59609,-0.19513 0.89257,-0.29732c0.82664,-0.28599 1.4563,-0.53715 1.88898,-0.75349l0.74175,3.46148c-0.57692,0.32967 -1.65863,0.72115 -3.24514,1.17444c-1.58651,0.45329 -3.45118,0.67993 -5.594,0.67993c-1.07375,0.00419 -2.14656,-0.06396 -3.21114,-0.20398c-1.46495,-0.19862 -2.78464,-0.54271 -3.95907,-1.03226c-1.18507,-0.48503 -2.29552,-1.13535 -3.2983,-1.93163c-0.57409,-0.46026 -1.10461,-0.97237 -1.58486,-1.52985c-1.1311,-1.32451 -1.99413,-2.85616 -2.5411,-4.50981c-0.08676,-0.25628 -0.16694,-0.51474 -0.24045,-0.77513c-0.57692,-2.0398 -0.86537,-4.27534 -0.86537,-6.70662c0,-2.60518 0.34718,-4.89861 1.04154,-6.88031c0.05227,-0.14899 0.10688,-0.29715 0.1638,-0.44443c0.39854,-1.04624 0.89309,-2.05335 1.47731,-3.0084c0.48534,-0.79074 1.04635,-1.53247 1.67511,-2.21473c1.0265,-1.12356 2.24832,-2.05154 3.60612,-2.73889c0.27641,-0.1384 0.55807,-0.26603 0.84436,-0.38262c1.66893,-0.67994 3.38936,-1.0199 5.16131,-1.0199c1.42248,-0.01378 2.83929,0.18136 4.20508,0.57918c1.98669,0.58834 3.7722,1.71415 5.15946,3.25317c1.02931,1.15736 1.8196,2.50686 2.32538,3.97081c0.43145,1.19257 0.74339,2.52729 0.93583,4.00419c0.15946,1.27073 0.23668,2.55043 0.23118,3.83111c0,0.32967 -0.01031,0.65933 -0.03091,0.989c-0.01221,0.19837 -0.02911,0.39643 -0.05068,0.59401c-0.01223,0.11128 -0.02624,0.22234 -0.04203,0.33317zM153.77879,200.43064h20.15076v3.64692h-24.35398v-42.83582h4.20323zM382.05103,183.18506v20.15076c-0.31565,0.09478 -0.73989,0.19553 -1.27271,0.30226c-0.17302,0.03451 -0.3463,0.06768 -0.51984,0.09952c-0.36575,0.06727 -0.73189,0.13238 -1.0984,0.19532c-0.50151,0.08613 -1.04195,0.17554 -1.62133,0.26826c-1.0302,0.16483 -2.17373,0.29876 -3.43058,0.40178c-1.25685,0.10302 -2.5446,0.15453 -3.86326,0.15453c-1.68953,0 -3.24514,-0.18543 -4.66681,-0.55631c-0.8459,-0.21599 -1.66305,-0.53202 -2.43416,-0.94139c-0.44611,-0.23889 -0.87233,-0.51318 -1.27457,-0.82025c-1.05081,-0.80356 -1.87497,-1.83376 -2.47249,-3.09061c-0.30614,-0.65569 -0.52956,-1.3469 -0.6651,-2.05773c-0.12527,-0.63172 -0.19965,-1.31062 -0.22314,-2.03671c-0.00543,-0.17013 -0.00811,-0.34035 -0.00804,-0.51057c-0.00375,-0.70829 0.05854,-1.41539 0.18606,-2.11212c0.14707,-0.81578 0.41784,-1.60432 0.80294,-2.33836c0.65933,-1.23624 1.58651,-2.25614 2.78154,-3.0597c0.77948,-0.51841 1.61986,-0.93882 2.50216,-1.2517c0.57641,-0.20659 1.16519,-0.37691 1.76288,-0.50995c1.07343,-0.23808 2.16276,-0.39777 3.25936,-0.47781c0.70486,-0.05296 1.41146,-0.07914 2.1183,-0.0785c0.41164,0.00054 0.82313,0.01519 1.23377,0.04388c0.19678,0.01353 0.39337,0.02981 0.58969,0.04883c0.58308,0.05587 1.16406,0.13195 1.74187,0.22809c0.03751,0.00629 0.07501,0.01268 0.1125,0.01916c0.45741,0.07871 0.8666,0.15762 1.22759,0.23674c0.10613,0.02312 0.21203,0.04724 0.31771,0.07232c0.42568,0.10137 0.72176,0.19265 0.88824,0.27383c0.00268,0.00143 0.00536,0.00287 0.00804,0.00432v-1.97799c0,-1.11262 -0.08242,-2.19433 -0.24725,-3.24513c-0.16483,-1.0508 -0.52541,-1.9986 -1.08172,-2.84336c-0.44383,-0.66691 -1.02193,-1.23386 -1.69736,-1.6646c-0.21046,-0.13637 -0.42792,-0.26161 -0.6515,-0.3752c-0.77553,-0.3956 -1.73939,-0.63935 -2.89157,-0.73124c-0.36442,-0.02829 -0.7298,-0.0421 -1.09531,-0.04141c-0.6136,-0.00108 -1.22714,0.0119 -1.84015,0.03894c-1.10767,0.0511 -2.03424,0.15206 -2.7797,0.30288c-0.21332,0.04257 -0.42487,0.09351 -0.63419,0.15268c-1.13281,0.32349 -1.96769,0.58763 -2.50463,0.79243c-0.00989,0.00369 -0.01979,0.0074 -0.02967,0.01113l-0.55631,-3.52329c0.58268,-0.27403 1.42869,-0.53385 2.53801,-0.77945c0.23514,-0.05197 0.47086,-0.10121 0.70713,-0.14773c1.46288,-0.28845 3.22454,-0.43268 5.28494,-0.43268c1.74599,0 3.27151,0.20624 4.57657,0.61874c0.2604,0.08198 0.51734,0.17457 0.77018,0.27754c0.74121,0.29771 1.44475,0.68174 2.09605,1.14414c0.53685,0.38358 1.02632,0.82948 1.45815,1.32834c0.80595,0.94194 1.42125,2.03147 1.81171,3.20805c0.0598,0.17579 0.11525,0.35304 0.16627,0.53158c0.41208,1.44228 0.61812,3.00819 0.61812,4.69773zM281.97717,172.42974l-0.80356,3.46148c-0.09343,-0.04521 -0.18964,-0.08444 -0.28805,-0.11745c-0.3379,-0.11745 -0.83817,-0.23962 -1.5008,-0.36655c-0.07329,-0.01409 -0.14665,-0.0279 -0.22005,-0.04142c-0.98735,-0.18132 -2.28004,-0.27403 -3.87809,-0.27815c-0.03626,-0.00005 -0.07253,-0.00005 -0.10879,0c-0.50791,-0.00072 -1.01576,0.01145 -1.52305,0.03647c-1.0269,0.05192 -1.89825,0.16072 -2.61404,0.32637c-0.01175,0.00266 -0.0235,0.00534 -0.03524,0.00804c-0.21315,0.04999 -0.42579,0.10213 -0.6379,0.15639c-0.57486,0.14753 -1.00032,0.27794 -1.27642,0.39127c-0.05297,0.02157 -0.10514,0.04507 -0.15639,0.07046v28.00091h-4.01779v-30.47339c0.35521,-0.15479 0.71558,-0.29745 1.08048,-0.42774c0.8184,-0.29505 1.79791,-0.59443 2.93855,-0.89813c0.08195,-0.02182 0.16395,-0.04346 0.24601,-0.06491c0.791,-0.20308 1.59383,-0.35688 2.40388,-0.4605c1.26509,-0.1669 2.66843,-0.25034 4.21002,-0.25034c0.87466,-0.00188 1.74871,0.04683 2.61775,0.14588c0.37546,0.04353 0.74959,0.09795 1.12189,0.16318c1.16949,0.20522 1.98149,0.41043 2.43601,0.61565c0.00185,0.00082 0.00371,0.00165 0.00556,0.00248zM199.02528,177.93102v22.376c0.19528,0.06413 0.39279,0.12124 0.59216,0.17122c0.56537,0.14423 1.28486,0.28289 2.15848,0.41599c0.41537,0.06207 0.83261,0.11093 1.25108,0.1465c0.96757,0.08489 2.10368,0.12877 3.40832,0.13166c0.04368,0.00005 0.08736,0.00005 0.13104,0c1.2908,0.01264 2.57625,-0.16756 3.81381,-0.53467c1.73532,-0.52521 3.29929,-1.50348 4.53083,-2.83408c1.13494,-1.2368 1.96883,-2.71906 2.43663,-4.33118c0.47719,-1.55849 0.71578,-3.3393 0.71578,-5.34243c0.00382,-1.28336 -0.10082,-2.56475 -0.31277,-3.8305c-0.0689,-0.40478 -0.15012,-0.80736 -0.24354,-1.20719c-0.1955,-0.85365 -0.47738,-1.68518 -0.84126,-2.48176c-0.2668,-0.58057 -0.58517,-1.13602 -0.95129,-1.65966c-0.83088,-1.1767 -1.93323,-2.13573 -3.21361,-2.79576c-0.0105,-0.00558 -0.02101,-0.01114 -0.03153,-0.01669c-1.2074,-0.63172 -2.67441,-0.97869 -4.40103,-1.04092c-0.19154,-0.00674 -0.38319,-0.01004 -0.57485,-0.00989c-0.77471,-0.00224 -1.5481,0.06395 -2.31116,0.1978c-0.13665,0.02442 -0.27286,0.0512 -0.40858,0.08035c-0.57345,0.1217 -1.14004,0.27377 -1.69736,0.45556c-0.24,0.07871 -0.47786,0.16383 -0.71331,0.25528c-0.35232,0.13641 -0.69953,0.28569 -1.04092,0.44752c-0.30914,0.14613 -0.61151,0.30618 -0.90617,0.47966c-0.19781,0.117 -0.39338,0.23776 -0.58659,0.36222c-0.19038,0.1228 -0.36634,0.2423 -0.52787,0.35851c-0.09338,0.06709 -0.18549,0.13592 -0.2763,0.20645zM184.3758,172.12068v31.95688h-4.01779v-31.95688zM233.51645,185.53392h18.2964c-0.01949,-1.02203 -0.12223,-2.04077 -0.30721,-3.04611c-0.36428,-1.91576 -1.04483,-3.4965 -2.04165,-4.74222c-1.19396,-1.50057 -2.93471,-2.46588 -4.8399,-2.68389c-0.48547,-0.06644 -0.97495,-0.09906 -1.46495,-0.09766c-0.72967,-0.00418 -1.45729,0.07777 -2.16775,0.24415c-0.58769,0.13949 -1.15681,0.34802 -1.6955,0.62122c-1.13323,0.57692 -2.12222,1.34957 -2.96698,2.31796c-0.8247,0.95208 -1.47523,2.042 -1.92174,3.2198c-0.01907,0.04953 -0.03782,0.09919 -0.05625,0.14896c-0.47389,1.27745 -0.75205,2.61672 -0.83446,4.01779zM378.03325,200.61608v-11.24981c-0.1461,-0.06527 -0.29501,-0.12404 -0.44629,-0.17616c-0.29834,-0.10467 -0.66201,-0.21181 -1.09098,-0.32142c-0.20808,-0.05308 -0.41682,-0.10356 -0.62616,-0.15144c-0.3422,-0.07659 -0.68794,-0.13641 -1.03597,-0.17926c-0.839,-0.10714 -1.85354,-0.16071 -3.04363,-0.16071c-0.98899,0 -2.01919,0.07211 -3.0906,0.21634c-1.07141,0.14423 -2.06041,0.45329 -2.96699,0.92719c-0.90657,0.47389 -1.64832,1.12292 -2.22523,1.94708c-0.29488,0.42948 -0.51225,0.9073 -0.64223,1.41179c-0.10673,0.39684 -0.17514,0.82952 -0.20522,1.29806c-0.01202,0.18849 -0.018,0.37732 -0.01792,0.5662c-0.00192,0.44839 0.02928,0.8963 0.09334,1.34009c0.07047,0.47266 0.1807,0.9074 0.33069,1.30424c0.04911,0.13034 0.10355,0.2586 0.16318,0.38447c0.39148,0.82416 0.94779,1.48349 1.66893,1.97799c0.45994,0.31178 0.95679,0.5653 1.47916,0.75473c0.36466,0.13363 0.73779,0.24287 1.11694,0.32699c0.99394,0.22294 2.11748,0.33625 3.37062,0.33996c0.01999,0.00003 0.03997,0.00003 0.05996,0c0.55968,0.00039 1.11933,-0.00681 1.67882,-0.02163c0.88721,-0.02432 1.69777,-0.06861 2.43169,-0.1329c0.41647,-0.03624 0.83232,-0.0793 1.24737,-0.12919c0.40755,-0.04904 0.78831,-0.10302 1.14228,-0.16195c0.20333,-0.03354 0.40611,-0.07043 0.60824,-0.11065zM185.18368,163.45215c0.08202,-0.31814 0.12212,-0.64563 0.11929,-0.97416c0.00104,-0.23933 -0.01944,-0.47827 -0.06119,-0.71393c-0.09547,-0.5871 -0.37744,-1.12785 -0.80418,-1.54222c-0.57692,-0.55631 -1.27745,-0.83446 -2.10161,-0.83446c-0.82416,0 -1.5247,0.27815 -2.10162,0.83446c-0.36277,0.34987 -0.62108,0.79374 -0.74607,1.28199c-0.08202,0.31814 -0.12213,0.64563 -0.1193,0.97416c-0.00104,0.23933 0.01944,0.47827 0.06119,0.71393c0.09547,0.5871 0.37744,1.12785 0.80417,1.54221c0.57692,0.55631 1.27745,0.83446 2.10162,0.83446c0.82416,0 1.52469,-0.27815 2.10161,-0.83446c0.36277,-0.34987 0.62109,-0.79373 0.74608,-1.28198z" fill-opacity="0.86275" stroke-width="0" stroke-linecap="round" />
    </g>
  </g>
  <style>
    .color { fill: #202020; }
    @media (prefers-color-scheme: dark) {
     .color { fill: #ffffff; }
    }
  </style>
</svg>
